# xmcd
#
# Track frame offsets: 
#        150
#        19685
#        37071
#        54172
#        75740
#        96576
#        114869
#        138969
#        161035
#        181531
#        194732
#        214000
#
# Disc length: 2965 seconds
#
# Revision: 0
# Processed by: cddbd v1.5.2PL0 Copyright (c) Steve Scherf et al.
# Submitted via: ExactAudioCopy v1.3
#
DISCID=9c0b930c
DTITLE=Shemekia Copeland - America's Child
DYEAR=2018
DGENRE=Blues
TTITLE0=Ain't Got Time For Hate
TTITLE1=Americans
TTITLE2=Would You Take My Blood?
TTITLE3=Great Rain
TTITLE4=Smoked Ham And Peaches
TTITLE5=The Wrong Idea
TTITLE6=Promised Myself
TTITLE7=In The Blood Of The Blues
TTITLE8=Such A Pretty Flame
TTITLE9=One I Love
TTITLE10=I'm Not Like Everybody Else
TTITLE11=Go To Sleepy Little Baby
EXTD=
EXTT0=
EXTT1=
EXTT2=
EXTT3=
EXTT4=
EXTT5=
EXTT6=
EXTT7=
EXTT8=
EXTT9=
EXTT10=
EXTT11=
PLAYORDER=
